<?xml version="1.0" standalone="no"?>
<!DOCTYPE svg PUBLIC "-//W3C//DTD SVG 20010904//EN"
 "http://www.w3.org/TR/2001/REC-SVG-20010904/DTD/svg10.dtd">
<svg version="1.0" xmlns="http://www.w3.org/2000/svg" viewBox="-30 20 394.000000 262.000000"
 preserveAspectRatio="none">

<g transform="translate(-40.000000,320.000000) scale(0.10000,-0.100000)"
fill="#000000" stroke="none">
<path d="M1645 2678 c-50 -11 -206 -27 -263 -27 -24 0 -58 -4 -75 -10 -33 -9
-106 -25 -287 -61 -202 -41 -236 -49 -325 -78 -146 -48 -238 -104 -336 -201
-73 -74 -90 -97 -118 -165 -28 -69 -32 -89 -31 -165 0 -47 1 -129 0 -181 0
-183 53 -380 143 -532 39 -66 52 -83 41 -53 -12 29 4 14 35 -33 16 -26 44 -61
62 -77 17 -17 42 -47 55 -67 13 -21 41 -47 61 -58 21 -12 53 -32 72 -45 19
-14 44 -25 55 -25 12 0 27 -5 32 -10 12 -12 148 -71 259 -111 44 -17 93 -37
110 -45 16 -8 48 -19 70 -24 22 -4 78 -21 125 -38 48 -16 116 -32 155 -35 l70
-5 -45 13 c-62 18 -21 18 49 1 123 -32 803 -15 839 20 7 8 24 14 38 14 14 0
24 6 24 14 0 17 16 23 80 32 44 6 49 9 48 30 -1 13 -9 27 -18 30 -8 4 -233 8
-500 10 -292 2 -511 8 -550 15 -68 12 -171 44 -205 65 -11 7 -59 24 -108 38
-116 35 -317 127 -433 199 -93 56 -194 173 -268 309 -49 89 -76 243 -76 440 0
113 4 158 16 190 48 123 256 244 469 274 28 3 57 10 66 15 9 4 31 11 50 14 42
7 171 31 264 50 39 7 122 19 185 25 63 6 140 15 170 21 69 12 501 17 595 6 39
-4 102 -14 140 -22 39 -8 106 -22 150 -30 113 -23 282 -63 335 -79 25 -8 79
-24 120 -36 106 -31 345 -116 408 -145 29 -14 57 -25 62 -25 5 0 42 -19 82
-42 40 -24 85 -49 99 -56 72 -38 132 -121 160 -225 30 -113 33 -140 33 -327 0
-208 -14 -347 -33 -335 -5 3 -7 -3 -5 -12 3 -10 -2 -27 -11 -38 -16 -19 -16
-19 -5 3 7 13 10 26 7 28 -5 5 -47 -89 -47 -105 0 -5 -6 -14 -13 -18 -7 -4
-26 -26 -43 -48 -41 -56 -152 -165 -205 -202 -24 -18 -79 -53 -121 -79 -43
-26 -78 -50 -78 -55 0 -4 -30 -17 -67 -30 -38 -12 -84 -30 -103 -39 -63 -32
-192 -70 -234 -70 -22 0 -51 -3 -64 -6 -25 -7 -39 -44 -27 -71 5 -10 7 -23 7
-28 -1 -7 24 -9 69 -7 52 3 74 1 80 -9 6 -11 11 -10 26 3 10 8 42 23 70 32 29
10 55 22 59 27 6 10 78 49 90 49 3 0 1 -7 -6 -15 -15 -18 -9 -19 24 -4 14 7
23 15 21 19 -3 5 12 15 33 24 47 19 93 55 72 56 -11 1 -10 4 4 15 11 8 24 15
30 15 5 0 1 -7 -10 -15 -14 -11 -16 -15 -4 -15 12 0 11 -4 -4 -15 -11 -8 -17
-17 -14 -21 9 -9 67 24 81 47 6 11 62 53 122 94 104 69 155 109 155 121 0 3
-6 2 -12 -2 -7 -4 -1 6 13 22 15 16 32 39 38 52 7 12 17 20 23 16 21 -13 111
113 142 199 13 35 28 72 34 82 17 30 14 -2 -3 -35 -9 -17 -13 -30 -11 -30 13
0 36 63 35 97 -1 21 6 65 15 98 12 45 15 81 10 147 -5 65 -3 92 6 103 22 26 7
269 -19 320 -12 21 -21 47 -21 58 0 26 -36 93 -83 157 -23 30 -33 48 -22 40
16 -13 18 -13 14 0 -3 8 -20 22 -38 31 -17 10 -48 33 -68 54 -32 33 -76 56
-330 176 -34 16 -71 29 -83 29 -12 0 -19 4 -16 8 10 17 -309 139 -337 129 -6
-2 -28 5 -47 16 -19 12 -57 24 -85 28 -27 3 -77 14 -110 23 -32 9 -84 16 -115
17 -38 0 -49 3 -35 8 16 7 11 10 -25 14 -91 12 -106 15 -150 32 -25 10 -74 20
-110 22 -131 9 -616 10 -655 1z m-65 -78 c-20 -13 -40 -13 -40 0 0 6 12 10 28
10 21 0 24 -2 12 -10z m60 -4 c0 -2 -11 -6 -25 -8 -13 -3 -22 -1 -19 3 5 9 44
13 44 5z m-347 -33 c-7 -2 -19 -2 -25 0 -7 3 -2 5 12 5 14 0 19 -2 13 -5z
m-50 -10 c-7 -2 -19 -2 -25 0 -7 3 -2 5 12 5 14 0 19 -2 13 -5z m-791 -204
c-24 -17 -50 -45 -58 -61 -9 -16 -17 -28 -20 -26 -10 11 31 71 64 93 53 36 64
31 14 -6z m-122 -113 c0 -2 -8 -10 -17 -17 -16 -13 -17 -12 -4 4 13 16 21 21
21 13z m-34 -66 c-1 -17 -8 -36 -15 -43 -10 -10 -11 -6 -6 18 14 63 24 76 21
25z m-49 -122 c-3 -8 -6 -5 -6 6 -1 11 2 17 5 13 3 -3 4 -12 1 -19z m22 -272
c7 -59 10 -110 7 -113 -2 -3 -7 12 -11 33 -3 22 -10 61 -15 87 -6 27 -10 70
-9 95 1 73 14 24 28 -102z m152 -543 c13 -16 12 -17 -3 -4 -10 7 -18 15 -18
17 0 8 8 3 21 -13z m3506 -45 c-3 -8 -6 -5 -6 6 -1 11 2 17 5 13 3 -3 4 -12 1
-19z m-327 -368 c0 -5 -5 -10 -11 -10 -5 0 -7 5 -4 10 3 6 8 10 11 10 2 0 4
-4 4 -10z m-2225 -130 c3 -5 2 -10 -4 -10 -5 0 -13 5 -16 10 -3 6 -2 10 4 10
5 0 13 -4 16 -10z m72 -26 c-3 -3 -12 -4 -19 -1 -8 3 -5 6 6 6 11 1 17 -2 13
-5z m2033 -29 c0 -2 -13 -11 -30 -20 -38 -19 -40 -11 -2 9 31 17 32 18 32 11z"/>
</g>
</svg>
